<svg width="22" height="21" viewBox="0 0 22 21" fill="none" xmlns="http://www.w3.org/2000/svg">
<path fill-rule="evenodd" clip-rule="evenodd" d="M20.5282 8.8811L12.2194 0.572598C11.8653 0.218344 11.3945 0.0231934 10.8938 0.0231934C10.393 0.0231934 9.92219 0.218188 9.56794 0.572442L1.26488 8.87535L1.25649 8.88389C0.529337 9.61524 0.53058 10.8018 1.26006 11.5313C1.59334 11.8648 2.03352 12.0579 2.50415 12.0781C2.52326 12.0799 2.54252 12.0809 2.56195 12.0809H2.89305V18.1944C2.89305 19.4041 3.87735 20.3884 5.0874 20.3884H8.33753C8.66692 20.3884 8.93417 20.1214 8.93417 19.7918V14.9988C8.93417 14.4468 9.3832 13.9977 9.93525 13.9977H11.8523C12.4043 13.9977 12.8533 14.4468 12.8533 14.9988V19.7918C12.8533 20.1214 13.1204 20.3884 13.45 20.3884H16.7001C17.9102 20.3884 18.8945 19.4041 18.8945 18.1944V12.0809H19.2015C19.7021 12.0809 20.1729 11.8859 20.5273 11.5316C21.2575 10.8009 21.2579 9.61229 20.5282 8.8811ZM19.82 10.8247C20.16 10.4845 20.1603 9.92866 19.8208 9.58792L11.5123 1.27972C11.3457 1.11299 11.1291 1.02319 10.8938 1.02319C10.6582 1.02319 10.4418 1.1128 10.275 1.27955L1.9752 9.57924L1.97294 9.58155L1.96563 9.58896C1.62684 9.9297 1.62766 10.4847 1.96717 10.8242C2.12304 10.9802 2.32614 11.0695 2.54703 11.079L2.57419 11.0802L2.58148 11.0809H3.89305V18.1944C3.89305 18.8518 4.42954 19.3884 5.0874 19.3884H7.93417V14.9988C7.93417 13.8945 8.83092 12.9977 9.93525 12.9977H11.8523C12.9566 12.9977 13.8533 13.8945 13.8533 14.9988V19.3884H16.7001C17.358 19.3884 17.8945 18.8518 17.8945 18.1944V11.0809H19.2015C19.4366 11.0809 19.653 10.9915 19.82 10.8247Z" fill="black"/>
</svg>
