<svg width="21" height="21" viewBox="0 0 21 21" fill="none" xmlns="http://www.w3.org/2000/svg">
<path d="M5.16214 1.71082C4.44752 1.71082 3.74894 1.92273 3.15476 2.31975C2.56057 2.71677 2.09746 3.28107 1.82399 3.9413C1.55052 4.60152 1.47896 5.32801 1.61838 6.0289C1.75779 6.72979 2.10192 7.3736 2.60723 7.87891C3.11254 8.38422 3.75635 8.72835 4.45724 8.86776C5.15813 9.00718 5.88462 8.93562 6.54485 8.66215C7.20507 8.38868 7.76937 7.92557 8.16639 7.33138C8.56342 6.7372 8.77533 6.03862 8.77533 5.324C8.77424 4.36606 8.39322 3.44766 7.71585 2.77029C7.03848 2.09292 6.12008 1.7119 5.16214 1.71082ZM5.16214 8.28025C4.57745 8.28025 4.00589 8.10686 3.51974 7.78203C3.03359 7.45719 2.65468 6.99549 2.43093 6.45531C2.20717 5.91512 2.14863 5.32072 2.2627 4.74727C2.37677 4.17381 2.65832 3.64706 3.07176 3.23362C3.4852 2.82018 4.01195 2.53863 4.5854 2.42456C5.15886 2.31049 5.75326 2.36904 6.29344 2.59279C6.83363 2.81654 7.29533 3.19545 7.62017 3.6816C7.945 4.16775 8.11838 4.73931 8.11838 5.324C8.1175 6.10778 7.80576 6.8592 7.25155 7.41341C6.69733 7.96762 5.94591 8.27937 5.16214 8.28025Z" fill="black"/>
<path d="M5.81912 4.66706C5.90623 4.66706 5.98978 4.63245 6.05138 4.57085C6.11298 4.50925 6.14759 4.4257 6.14759 4.33858C6.14759 4.25147 6.11298 4.16792 6.05138 4.10632C5.98978 4.04472 5.90623 4.01011 5.81912 4.01011H5.49064C5.49064 3.923 5.45604 3.83945 5.39444 3.77785C5.33284 3.71625 5.24929 3.68164 5.16217 3.68164C5.07506 3.68164 4.99151 3.71625 4.92991 3.77785C4.86831 3.83945 4.8337 3.923 4.8337 4.01011H4.50523C4.41811 4.01011 4.33457 4.04472 4.27296 4.10632C4.21136 4.16792 4.17676 4.25147 4.17676 4.33858V5.324C4.17676 5.41111 4.21136 5.49466 4.27296 5.55626C4.33457 5.61786 4.41811 5.65247 4.50523 5.65247H5.49064V5.98094H4.50523C4.41811 5.98094 4.33457 6.01555 4.27296 6.07715C4.21136 6.13875 4.17676 6.2223 4.17676 6.30941C4.17676 6.39653 4.21136 6.48008 4.27296 6.54168C4.33457 6.60328 4.41811 6.63788 4.50523 6.63788H4.8337C4.8337 6.725 4.86831 6.80855 4.92991 6.87015C4.99151 6.93175 5.07506 6.96636 5.16217 6.96636C5.24929 6.96636 5.33284 6.93175 5.39444 6.87015C5.45604 6.80855 5.49064 6.725 5.49064 6.63788H5.81912C5.90623 6.63788 5.98978 6.60328 6.05138 6.54168C6.11298 6.48008 6.14759 6.39653 6.14759 6.30941V5.324C6.14759 5.23688 6.11298 5.15333 6.05138 5.09173C5.98978 5.03013 5.90623 4.99553 5.81912 4.99553H4.8337V4.66706H5.81912Z" fill="black"/>
<path d="M8.9396 0.396942H1.38476C1.07996 0.39729 0.787742 0.518525 0.572216 0.734051C0.35669 0.949577 0.235455 1.24179 0.235107 1.54659V9.10144C0.235455 9.40624 0.35669 9.69845 0.572216 9.91398C0.787742 10.1295 1.07996 10.2507 1.38476 10.2511H8.9396C9.2444 10.2507 9.53662 10.1295 9.75214 9.91398C9.96767 9.69845 10.0889 9.40624 10.0893 9.10144V1.54659C10.0889 1.24179 9.96767 0.949577 9.75214 0.734051C9.53662 0.518525 9.2444 0.39729 8.9396 0.396942ZM9.43231 9.10144C9.43217 9.23207 9.38021 9.35731 9.28784 9.44968C9.19547 9.54205 9.07023 9.594 8.9396 9.59414H1.38476C1.25413 9.594 1.12889 9.54205 1.03652 9.44968C0.944147 9.35731 0.892192 9.23207 0.89205 9.10144V1.54659C0.892192 1.41596 0.944147 1.29072 1.03652 1.19835C1.12889 1.10598 1.25413 1.05403 1.38476 1.05389H8.9396C9.07023 1.05403 9.19547 1.10598 9.28784 1.19835C9.38021 1.29072 9.43217 1.41596 9.43231 1.54659V9.10144Z" fill="black"/>
<path d="M19.4507 0.396942H11.8959C11.5911 0.39729 11.2989 0.518525 11.0833 0.734051C10.8678 0.949577 10.7466 1.24179 10.7462 1.54659V9.10144C10.7466 9.40624 10.8678 9.69845 11.0833 9.91398C11.2989 10.1295 11.5911 10.2507 11.8959 10.2511H19.4507C19.7555 10.2507 20.0477 10.1295 20.2633 9.91398C20.4788 9.69845 20.6 9.40624 20.6004 9.10144V1.54659C20.6 1.24179 20.4788 0.949577 20.2633 0.734051C20.0477 0.518525 19.7555 0.39729 19.4507 0.396942ZM19.9434 9.10144C19.9433 9.23207 19.8913 9.35731 19.799 9.44968C19.7066 9.54205 19.5813 9.594 19.4507 9.59414H11.8959C11.7652 9.594 11.64 9.54205 11.5476 9.44968C11.4553 9.35731 11.4033 9.23207 11.4032 9.10144V1.54659C11.4033 1.41596 11.4553 1.29072 11.5476 1.19835C11.64 1.10598 11.7652 1.05403 11.8959 1.05389H19.4507C19.5813 1.05403 19.7066 1.10598 19.799 1.19835C19.8913 1.29072 19.9433 1.41596 19.9434 1.54659V9.10144Z" fill="black"/>
<path d="M8.9396 10.908H1.38476C1.07996 10.9084 0.787742 11.0296 0.572216 11.2451C0.35669 11.4607 0.235455 11.7529 0.235107 12.0577V19.6125C0.235455 19.9173 0.35669 20.2095 0.572216 20.4251C0.787742 20.6406 1.07996 20.7618 1.38476 20.7622H8.9396C9.2444 20.7618 9.53662 20.6406 9.75214 20.4251C9.96767 20.2095 10.0889 19.9173 10.0893 19.6125V12.0577C10.0889 11.7529 9.96767 11.4607 9.75214 11.2451C9.53662 11.0296 9.2444 10.9084 8.9396 10.908ZM9.43231 19.6125C9.43217 19.7431 9.38021 19.8684 9.28784 19.9608C9.19547 20.0531 9.07023 20.1051 8.9396 20.1052H1.38476C1.25413 20.1051 1.12889 20.0531 1.03652 19.9608C0.944147 19.8684 0.892192 19.7431 0.89205 19.6125V12.0577C0.892192 11.927 0.944147 11.8018 1.03652 11.7094C1.12889 11.6171 1.25413 11.5651 1.38476 11.565H8.9396C9.07023 11.5651 9.19547 11.6171 9.28784 11.7094C9.38021 11.8018 9.43217 11.927 9.43231 12.0577V19.6125Z" fill="black"/>
<path d="M19.4507 10.908H11.8959C11.5911 10.9084 11.2988 11.0296 11.0833 11.2451C10.8678 11.4606 10.7466 11.7529 10.7462 12.0577V19.6125C10.7466 19.9173 10.8678 20.2095 11.0833 20.4251C11.2988 20.6406 11.5911 20.7618 11.8959 20.7622H19.4507C19.7555 20.7618 20.0477 20.6406 20.2633 20.4251C20.4788 20.2095 20.6 19.9173 20.6004 19.6125V12.0577C20.6 11.7529 20.4788 11.4606 20.2633 11.2451C20.0477 11.0296 19.7555 10.9084 19.4507 10.908ZM19.9434 19.6125C19.9433 19.7432 19.8914 19.8684 19.799 19.9608C19.7066 20.0532 19.5814 20.1051 19.4507 20.1052H11.8959C11.7652 20.1051 11.64 20.0532 11.5476 19.9608C11.4552 19.8684 11.4033 19.7432 11.4032 19.6125V12.0577C11.4033 11.927 11.4552 11.8018 11.5476 11.7094C11.64 11.617 11.7652 11.5651 11.8959 11.565H19.4507C19.5814 11.5651 19.7066 11.617 19.799 11.7094C19.8914 11.8018 19.9433 11.927 19.9434 12.0577V19.6125Z" fill="black"/>
<path d="M17.9713 14.8224C17.9645 14.7403 17.927 14.6637 17.8664 14.608C17.8058 14.5522 17.7264 14.5212 17.644 14.5212H16.9871V14.0285C16.9867 13.7237 16.8655 13.4315 16.6499 13.216C16.4344 13.0004 16.1422 12.8792 15.8374 12.8788H15.5089C15.2041 12.8792 14.9119 13.0004 14.6964 13.216C14.4809 13.4315 14.3596 13.7237 14.3593 14.0285V14.5212H13.7023C13.62 14.5212 13.5406 14.5522 13.4799 14.608C13.4193 14.6637 13.3819 14.7403 13.375 14.8224L13.0465 18.764C13.0428 18.8093 13.0484 18.8549 13.0632 18.8979C13.0779 18.9408 13.1014 18.9803 13.1322 19.0137C13.1629 19.0472 13.2003 19.0739 13.2419 19.0921C13.2835 19.1104 13.3284 19.1198 13.3739 19.1198H17.9725C18.0179 19.1198 18.0628 19.1104 18.1045 19.0921C18.1461 19.0739 18.1834 19.0472 18.2142 19.0137C18.2449 18.9803 18.2684 18.9408 18.2832 18.8979C18.2979 18.8549 18.3036 18.8093 18.2998 18.764L17.9713 14.8224ZM15.0162 14.0285C15.0164 13.8979 15.0683 13.7726 15.1607 13.6803C15.2531 13.5879 15.3783 13.5359 15.5089 13.5358H15.8374C15.968 13.5359 16.0933 13.5879 16.1856 13.6803C16.278 13.7726 16.33 13.8979 16.3301 14.0285V14.5212H15.0162V14.0285ZM13.7308 18.4629L14.0046 15.1781H14.3593V15.5066C14.3593 15.5937 14.3939 15.6773 14.4555 15.7389C14.5171 15.8005 14.6006 15.8351 14.6878 15.8351C14.7749 15.8351 14.8584 15.8005 14.92 15.7389C14.9816 15.6773 15.0162 15.5937 15.0162 15.5066V15.1781H16.3301V15.5066C16.3301 15.5937 16.3647 15.6773 16.4263 15.7389C16.4879 15.8005 16.5715 15.8351 16.6586 15.8351C16.7457 15.8351 16.8292 15.8005 16.8908 15.7389C16.9524 15.6773 16.9871 15.5937 16.9871 15.5066V15.1781H17.3418L17.6155 18.4629H13.7308Z" fill="black"/>
</svg>
