<svg width="17" height="21" viewBox="0 0 17 21" fill="none" xmlns="http://www.w3.org/2000/svg">
<path d="M13.2241 10.2378C12.9487 10.5846 12.6392 10.9048 12.2838 11.1938C14.3124 12.3574 15.682 14.5451 15.682 17.0467C15.682 18.3984 12.7204 19.4572 8.93963 19.4572C5.1589 19.4572 2.19729 18.3984 2.19729 17.0467C2.19729 14.5451 3.56682 12.3574 5.59541 11.1938C5.24007 10.9048 4.93064 10.5847 4.65517 10.2378C2.39609 11.6644 0.892334 14.1831 0.892334 17.0467C0.892334 17.9142 1.36732 19.1231 3.63028 19.9563C5.04184 20.476 6.92741 20.7622 8.93967 20.7622C10.9519 20.7622 12.8375 20.476 14.2491 19.9563C16.512 19.1231 16.987 17.9142 16.987 17.0467C16.9869 14.1831 15.4832 11.6644 13.2241 10.2378Z" fill="black"/>
<path d="M8.93967 11.0977C11.4758 11.0977 13.4288 8.64621 13.4288 5.74735C13.4288 2.84715 11.4748 0.396942 8.93967 0.396942C6.40351 0.396942 4.45056 2.84844 4.45056 5.7473C4.45056 8.6475 6.40454 11.0977 8.93967 11.0977ZM8.93967 1.7019C10.6954 1.7019 12.1238 3.51665 12.1238 5.7473C12.1238 7.97795 10.6954 9.7927 8.93967 9.7927C7.18395 9.7927 5.75552 7.97795 5.75552 5.7473C5.75552 3.51665 7.18395 1.7019 8.93967 1.7019Z" fill="black"/>
</svg>
