<svg width="23" height="22" viewBox="0 0 23 22" fill="none" xmlns="http://www.w3.org/2000/svg">
<path d="M17.7266 16.9714C16.4062 16.9714 15.3312 18.0465 15.3312 19.3668C15.3312 20.6871 16.4062 21.7622 17.7266 21.7622C19.0469 21.7622 20.122 20.6872 20.122 19.3668C20.122 18.0465 19.0469 16.9714 17.7266 16.9714ZM17.7266 20.8041C16.9342 20.8041 16.2893 20.1593 16.2893 19.3668C16.2893 18.5744 16.9342 17.9296 17.7266 17.9296C18.519 17.9296 19.1638 18.5744 19.1638 19.3668C19.1638 20.1592 18.5189 20.8041 17.7266 20.8041Z" fill="black"/>
<path d="M8.14772 16.9714C6.82738 16.9714 5.75232 18.0465 5.75232 19.3668C5.75232 20.6871 6.82738 21.7622 8.14772 21.7622C9.46806 21.7622 10.5431 20.6871 10.5431 19.3668C10.5431 18.0465 9.4681 16.9714 8.14772 16.9714ZM8.14772 20.8041C7.3553 20.8041 6.71047 20.1593 6.71047 19.3668C6.71047 18.5744 7.3553 17.9296 8.14772 17.9296C8.94014 17.9296 9.58497 18.5744 9.58497 19.3668C9.58497 20.1592 8.94014 20.8041 8.14772 20.8041Z" fill="black"/>
<path d="M20.6006 15.0499H8.58419C7.44683 15.0499 6.45899 14.2402 6.23573 13.1239L3.82308 1.06255C3.77803 0.83834 3.58162 0.677368 3.35359 0.677368H0.479098C0.214644 0.677368 0 0.891967 0 1.15642C0 1.42087 0.214644 1.63552 0.479098 1.63552H2.96073L5.29576 13.3127C5.60814 14.8745 6.99172 16.008 8.58419 16.008H20.6005C20.865 16.008 21.0796 15.7934 21.0796 15.5289C21.0796 15.2645 20.865 15.0499 20.6006 15.0499Z" fill="black"/>
<path d="M22.883 3.71585C22.7919 3.61142 22.6597 3.55106 22.5208 3.55106H4.31565C4.05119 3.55106 3.83655 3.7657 3.83655 4.03015C3.83655 4.29461 4.05119 4.50921 4.31565 4.50921H21.9679L21.1937 9.94106C21.1631 10.1557 20.9916 10.3234 20.7769 10.3492L5.69635 12.1774C5.43284 12.21 5.24599 12.4486 5.27761 12.7111C5.3073 12.9545 5.51332 13.1327 5.75285 13.1327C5.77203 13.1327 5.79116 13.1318 5.81034 13.1299L20.8909 11.3007C21.5348 11.2222 22.0484 10.7192 22.1404 10.0772L22.995 4.09726C23.0152 3.96018 22.974 3.82027 22.883 3.71585Z" fill="black"/>
</svg>
