<svg width="161" height="59" viewBox="0 0 161 59" fill="none" xmlns="http://www.w3.org/2000/svg">
<path fill-rule="evenodd" clip-rule="evenodd" d="M46.9114 41.5442C51.1687 51.5562 61.0948 58.5767 72.6606 58.5767C83.1812 58.5767 92.3451 52.7677 97.1197 44.1822L91.1533 38.7182C88.0303 45.8297 80.9255 50.7963 72.6606 50.7963C63.9657 50.7963 56.5546 45.2993 53.7131 37.591L46.9114 41.5442Z" fill="white"/>
<path d="M8.90513 22.8333C7.30513 22.8333 5.88513 22.5733 4.64513 22.0533C3.42513 21.5333 2.45513 20.8133 1.73513 19.8933C1.01513 18.9733 0.605127 17.9333 0.505127 16.7733H6.89513C6.97513 17.2733 7.18513 17.6433 7.52513 17.8833C7.88513 18.1233 8.33513 18.2433 8.87513 18.2433C9.21513 18.2433 9.48513 18.1733 9.68513 18.0333C9.88513 17.8733 9.98513 17.6833 9.98513 17.4633C9.98513 17.0833 9.77513 16.8133 9.35513 16.6533C8.93513 16.4933 8.22513 16.3133 7.22513 16.1133C6.00513 15.8733 4.99513 15.6133 4.19513 15.3333C3.41513 15.0533 2.72513 14.5733 2.12513 13.8933C1.54513 13.2133 1.25513 12.2733 1.25513 11.0733C1.25513 10.0333 1.52513 9.09331 2.06513 8.25331C2.62513 7.39331 3.44513 6.72331 4.52513 6.24331C5.60513 5.74331 6.91513 5.49331 8.45513 5.49331C10.7351 5.49331 12.5151 6.05331 13.7951 7.17331C15.0951 8.29331 15.8751 9.75331 16.1351 11.5533H10.2251C10.1251 11.0933 9.91513 10.7433 9.59513 10.5033C9.27513 10.2433 8.84513 10.1133 8.30513 10.1133C7.96513 10.1133 7.70513 10.1833 7.52513 10.3233C7.34513 10.4433 7.25513 10.6333 7.25513 10.8933C7.25513 11.2333 7.46513 11.4933 7.88513 11.6733C8.30513 11.8333 8.97513 12.0033 9.89513 12.1833C11.1151 12.4233 12.1451 12.6933 12.9851 12.9933C13.8251 13.2933 14.5551 13.8133 15.1751 14.5533C15.7951 15.2733 16.1051 16.2733 16.1051 17.5533C16.1051 18.5533 15.8151 19.4533 15.2351 20.2533C14.6551 21.0533 13.8151 21.6833 12.7151 22.1433C11.6351 22.6033 10.3651 22.8333 8.90513 22.8333Z" fill="white"/>
<path d="M30.5982 5.58331C32.5382 5.58331 34.0482 6.23331 35.1282 7.53331C36.2282 8.83331 36.7782 10.5933 36.7782 12.8133V22.6233H30.1482V13.6533C30.1482 12.8533 29.9282 12.2233 29.4882 11.7633C29.0682 11.2833 28.4982 11.0433 27.7782 11.0433C27.0382 11.0433 26.4582 11.2833 26.0382 11.7633C25.6182 12.2233 25.4082 12.8533 25.4082 13.6533V22.6233H18.7482V0.423309H25.4082V8.28331C25.9282 7.48331 26.6182 6.83331 27.4782 6.33331C28.3582 5.83331 29.3982 5.58331 30.5982 5.58331Z" fill="white"/>
<path d="M47.7061 22.8333C46.0061 22.8333 44.4761 22.4833 43.1161 21.7833C41.7561 21.0833 40.6861 20.0833 39.9061 18.7833C39.1461 17.4633 38.7661 15.9233 38.7661 14.1633C38.7661 12.4033 39.1461 10.8733 39.9061 9.57331C40.6861 8.25331 41.7561 7.24331 43.1161 6.54331C44.4761 5.84331 46.0061 5.49331 47.7061 5.49331C49.4061 5.49331 50.9361 5.84331 52.2961 6.54331C53.6561 7.24331 54.7161 8.25331 55.4761 9.57331C56.2561 10.8733 56.6461 12.4033 56.6461 14.1633C56.6461 15.9233 56.2561 17.4633 55.4761 18.7833C54.7161 20.0833 53.6561 21.0833 52.2961 21.7833C50.9361 22.4833 49.4061 22.8333 47.7061 22.8333ZM47.7061 17.0733C48.3261 17.0733 48.8461 16.8333 49.2661 16.3533C49.6861 15.8533 49.8961 15.1233 49.8961 14.1633C49.8961 13.2033 49.6861 12.4833 49.2661 12.0033C48.8461 11.5033 48.3261 11.2533 47.7061 11.2533C47.0861 11.2533 46.5661 11.5033 46.1461 12.0033C45.7261 12.4833 45.5161 13.2033 45.5161 14.1633C45.5161 15.1233 45.7161 15.8533 46.1161 16.3533C46.5361 16.8333 47.0661 17.0733 47.7061 17.0733Z" fill="white"/>
<path d="M65.3984 8.01331C65.8184 7.23331 66.4184 6.62331 67.1984 6.18331C67.9984 5.72331 68.9484 5.49331 70.0484 5.49331C71.3684 5.49331 72.5584 5.84331 73.6184 6.54331C74.6784 7.22331 75.5084 8.22331 76.1084 9.54331C76.7284 10.8433 77.0384 12.3833 77.0384 14.1633C77.0384 15.9433 76.7284 17.4933 76.1084 18.8133C75.5084 20.1133 74.6784 21.1133 73.6184 21.8133C72.5584 22.4933 71.3684 22.8333 70.0484 22.8333C68.9484 22.8333 67.9984 22.6133 67.1984 22.1733C66.4184 21.7133 65.8184 21.0933 65.3984 20.3133V30.7233H58.7384V5.70331H65.3984V8.01331ZM70.2884 14.1633C70.2884 13.2633 70.0584 12.5633 69.5984 12.0633C69.1384 11.5633 68.5484 11.3133 67.8284 11.3133C67.1084 11.3133 66.5184 11.5633 66.0584 12.0633C65.5984 12.5633 65.3684 13.2633 65.3684 14.1633C65.3684 15.0633 65.5984 15.7633 66.0584 16.2633C66.5184 16.7633 67.1084 17.0133 67.8284 17.0133C68.5484 17.0133 69.1384 16.7633 69.5984 16.2633C70.0584 15.7633 70.2884 15.0633 70.2884 14.1633Z" fill="white"/>
<path d="M85.789 8.01331C86.209 7.23331 86.809 6.62331 87.589 6.18331C88.389 5.72331 89.339 5.49331 90.439 5.49331C91.759 5.49331 92.949 5.84331 94.009 6.54331C95.069 7.22331 95.899 8.22331 96.499 9.54331C97.119 10.8433 97.429 12.3833 97.429 14.1633C97.429 15.9433 97.119 17.4933 96.499 18.8133C95.899 20.1133 95.069 21.1133 94.009 21.8133C92.949 22.4933 91.759 22.8333 90.439 22.8333C89.339 22.8333 88.389 22.6133 87.589 22.1733C86.809 21.7133 86.209 21.0933 85.789 20.3133V30.7233H79.129V5.70331H85.789V8.01331ZM90.679 14.1633C90.679 13.2633 90.449 12.5633 89.989 12.0633C89.529 11.5633 88.939 11.3133 88.219 11.3133C87.499 11.3133 86.909 11.5633 86.449 12.0633C85.989 12.5633 85.759 13.2633 85.759 14.1633C85.759 15.0633 85.989 15.7633 86.449 16.2633C86.909 16.7633 87.499 17.0133 88.219 17.0133C88.939 17.0133 89.529 16.7633 89.989 16.2633C90.449 15.7633 90.679 15.0633 90.679 14.1633Z" fill="white"/>
<path d="M102.82 22.8633C101.66 22.8633 100.73 22.5533 100.03 21.9333C99.3297 21.3133 98.9797 20.5333 98.9797 19.5933C98.9797 18.6333 99.3297 17.8433 100.03 17.2233C100.73 16.5833 101.66 16.2633 102.82 16.2633C103.96 16.2633 104.88 16.5833 105.58 17.2233C106.28 17.8433 106.63 18.6333 106.63 19.5933C106.63 20.5333 106.28 21.3133 105.58 21.9333C104.88 22.5533 103.96 22.8633 102.82 22.8633Z" fill="white"/>
<path d="M131.69 5.58331C133.85 5.58331 135.52 6.23331 136.7 7.53331C137.9 8.83331 138.5 10.5933 138.5 12.8133V22.6233H131.87V13.6533C131.87 12.9333 131.65 12.3733 131.21 11.9733C130.79 11.5533 130.22 11.3433 129.5 11.3433C128.76 11.3433 128.18 11.5533 127.76 11.9733C127.34 12.3733 127.13 12.9333 127.13 13.6533V22.6233H120.5V13.6533C120.5 12.9333 120.28 12.3733 119.84 11.9733C119.42 11.5533 118.85 11.3433 118.13 11.3433C117.39 11.3433 116.81 11.5533 116.39 11.9733C115.97 12.3733 115.76 12.9333 115.76 13.6533V22.6233H109.1V5.70331H115.76V7.98331C116.24 7.26331 116.89 6.68331 117.71 6.24331C118.55 5.80331 119.53 5.58331 120.65 5.58331C121.87 5.58331 122.95 5.85331 123.89 6.39331C124.83 6.91331 125.58 7.65331 126.14 8.61331C126.76 7.73331 127.55 7.01331 128.51 6.45331C129.47 5.87331 130.53 5.58331 131.69 5.58331Z" fill="white"/>
<path d="M160.495 5.70331L149.665 30.7233H142.375L146.635 21.7833L139.585 5.70331H146.995L150.175 14.2833L153.145 5.70331H160.495Z" fill="white"/>
</svg>
